<?xml version="1.0" standalone="no"?>
<!DOCTYPE svg PUBLIC "-//W3C//DTD SVG 20010904//EN"
 "http://www.w3.org/TR/2001/REC-SVG-20010904/DTD/svg10.dtd">
<svg version="1.0" xmlns="http://www.w3.org/2000/svg"
 width="24.000000pt" height="24.000000pt" viewBox="0 0 24.000000 24.000000"
 preserveAspectRatio="xMidYMid meet">
<metadata>
Created by potrace 1.15, written by Peter Selinger 2001-2017
</metadata>
<g transform="translate(0.000000,24.000000) scale(0.100000,-0.100000)"
fill="#000000" stroke="none">
<path d="M30 120 l0 -90 90 0 c91 0 105 6 76 36 -8 8 -18 36 -22 62 -9 61 -20
82 -44 82 -23 0 -35 -20 -44 -75 -10 -58 -16 -75 -27 -75 -5 0 -9 34 -9 75 0
43 -4 75 -10 75 -6 0 -10 -37 -10 -90z"/>
</g>
</svg>
