<?xml version="1.0" standalone="no"?>
<!DOCTYPE svg PUBLIC "-//W3C//DTD SVG 20010904//EN"
 "http://www.w3.org/TR/2001/REC-SVG-20010904/DTD/svg10.dtd">
<svg version="1.0" xmlns="http://www.w3.org/2000/svg"
 width="16.000000pt" height="16.000000pt" viewBox="0 0 16.000000 16.000000"
 preserveAspectRatio="xMidYMid meet">
<metadata>
Created by potrace 1.11, written by Peter Selinger 2001-2013
</metadata>
<g transform="translate(0.000000,16.000000) scale(0.001436,-0.001436)"
fill="#000000" stroke="none">
<path d="M5318 10954 c-4 -4 -58 -10 -120 -15 -62 -5 -142 -13 -178 -18 -36
-6 -85 -13 -110 -16 -25 -4 -54 -10 -65 -15 -11 -5 -36 -11 -55 -15 -19 -3
-50 -8 -68 -12 -18 -3 -35 -9 -38 -14 -3 -5 -18 -9 -34 -9 -16 0 -32 -4 -35
-10 -3 -5 -19 -10 -36 -10 -16 0 -29 -4 -29 -10 0 -5 -13 -10 -30 -10 -16 0
-30 -4 -30 -10 0 -5 -9 -10 -20 -10 -11 0 -29 -4 -40 -10 -11 -5 -29 -14 -40
-20 -11 -5 -29 -10 -40 -10 -11 0 -20 -4 -20 -10 0 -5 -7 -10 -15 -10 -8 0
-23 -4 -33 -9 -14 -8 -168 -85 -289 -145 -13 -6 -23 -14 -23 -18 0 -5 -9 -8
-20 -8 -11 0 -20 -4 -20 -9 0 -5 -13 -14 -30 -21 -16 -7 -30 -16 -30 -21 0 -5
-6 -9 -13 -9 -7 0 -22 -8 -33 -17 -10 -10 -31 -24 -46 -32 -16 -8 -28 -18 -28
-23 0 -4 -6 -8 -13 -8 -7 0 -22 -8 -33 -18 -10 -10 -35 -28 -54 -42 -19 -13
-37 -27 -40 -30 -3 -3 -21 -17 -40 -30 -19 -13 -46 -36 -60 -50 -14 -14 -41
-37 -60 -50 -45 -32 -368 -355 -400 -400 -13 -19 -36 -46 -50 -60 -14 -14 -37
-41 -50 -60 -13 -19 -27 -37 -30 -40 -3 -3 -17 -21 -30 -40 -14 -19 -32 -44
-42 -54 -10 -11 -18 -24 -18 -29 0 -5 -8 -17 -18 -26 -9 -9 -23 -28 -31 -43
-8 -16 -18 -28 -23 -28 -4 0 -8 -9 -8 -20 0 -11 -4 -20 -8 -20 -5 0 -15 -12
-23 -27 -8 -16 -16 -30 -19 -33 -8 -8 -50 -87 -50 -94 0 -3 166 -6 369 -6 342
0 369 1 374 18 6 17 37 72 47 82 3 3 11 17 19 33 8 15 18 27 23 27 4 0 8 6 8
13 0 7 8 22 18 33 10 10 28 35 42 54 13 19 31 42 40 50 9 8 27 31 40 50 32 45
255 268 300 300 19 13 42 31 50 40 8 9 31 27 50 40 19 14 44 32 54 42 11 10
25 18 31 18 6 0 17 9 25 20 8 11 20 20 28 20 7 0 22 9 34 20 12 11 28 20 35
20 7 0 13 5 13 10 0 6 6 10 13 10 7 0 23 9 35 20 12 11 28 20 37 20 8 0 15 5
15 10 0 6 9 10 19 10 11 0 21 3 23 8 4 10 128 72 144 72 8 0 14 5 14 10 0 6 9
10 20 10 11 0 20 5 20 10 0 6 7 10 15 10 8 0 23 4 33 9 9 5 31 14 47 21 17 7
38 16 47 21 10 5 27 9 38 9 11 0 20 5 20 10 0 6 14 10 30 10 17 0 30 5 30 10
0 6 11 10 24 10 14 0 28 5 31 10 3 6 19 10 36 10 16 0 29 4 29 9 0 5 15 11 33
14 17 3 52 11 77 17 25 6 62 14 83 17 20 3 40 9 43 14 3 5 24 9 48 9 23 0 46
4 52 9 5 5 34 12 64 15 30 4 91 11 135 16 110 14 411 32 520 32 79 -1 252 -11
465 -28 36 -2 74 -9 85 -14 11 -5 43 -11 70 -14 108 -11 145 -18 145 -27 0 -5
18 -9 39 -9 22 0 43 -4 46 -10 3 -5 19 -10 35 -10 16 0 32 -4 35 -10 3 -5 16
-10 27 -10 19 0 171 -48 226 -71 12 -5 33 -13 47 -19 61 -24 81 -33 97 -41 10
-5 25 -9 33 -9 8 0 15 -4 15 -10 0 -5 9 -10 20 -10 11 0 20 -4 20 -10 0 -5 9
-10 20 -10 11 0 20 -4 20 -10 0 -5 9 -10 20 -10 11 0 20 -4 20 -10 0 -5 9 -10
20 -10 11 0 20 -4 20 -10 0 -5 9 -10 20 -10 11 0 20 -3 20 -8 0 -4 17 -15 38
-24 44 -21 91 -48 109 -65 7 -6 22 -15 33 -18 11 -3 20 -11 20 -16 0 -5 6 -9
13 -9 7 0 22 -8 33 -18 10 -10 35 -29 54 -42 19 -13 44 -32 54 -42 11 -10 24
-18 29 -18 5 0 17 -8 26 -18 9 -10 32 -29 51 -42 19 -13 46 -36 60 -50 14 -14
45 -41 70 -60 25 -19 104 -95 177 -167 73 -73 138 -133 144 -133 6 0 3 7 -5
16 -9 8 -16 19 -16 24 0 5 -6 15 -13 22 -7 7 -24 29 -37 48 -14 19 -35 45 -47
58 -13 13 -23 26 -23 30 0 4 -15 24 -32 43 -18 19 -46 52 -62 73 -37 50 -310
322 -359 360 -21 15 -53 42 -70 60 -18 17 -48 42 -67 56 -19 13 -41 30 -48 37
-7 7 -26 20 -42 30 -17 9 -30 21 -30 25 0 4 -6 8 -13 8 -7 0 -23 9 -35 20 -12
11 -25 20 -30 20 -4 0 -17 8 -28 18 -11 9 -29 22 -40 28 -10 6 -30 17 -44 25
-14 8 -27 16 -30 19 -5 5 -58 35 -130 72 -25 13 -46 26 -48 31 -2 4 -12 7 -23
7 -10 0 -19 5 -19 10 0 6 -6 10 -13 10 -7 0 -39 13 -72 30 -33 16 -68 30 -77
30 -10 0 -18 5 -18 10 0 6 -9 10 -19 10 -11 0 -23 5 -26 10 -3 6 -17 10 -31
10 -13 0 -24 5 -24 10 0 6 -10 10 -23 10 -13 0 -27 4 -32 8 -6 4 -28 14 -50
21 -22 7 -49 16 -60 21 -11 4 -40 13 -65 20 -25 7 -54 16 -65 20 -11 5 -33 11
-50 15 -16 3 -48 11 -70 16 -22 6 -56 13 -75 15 -19 3 -44 9 -55 14 -11 5 -36
11 -55 15 -261 46 -452 64 -770 71 -130 3 -239 2 -242 -2z"/>
<path d="M3515 8710 c-3 -5 -26 -10 -50 -10 -24 0 -47 -4 -50 -10 -3 -5 -19
-10 -36 -10 -16 0 -29 -4 -29 -10 0 -5 -13 -10 -30 -10 -16 0 -30 -4 -30 -10
0 -5 -7 -10 -15 -10 -8 0 -23 -4 -33 -9 -17 -9 -126 -63 -169 -85 -13 -6 -23
-14 -23 -18 0 -5 -6 -8 -12 -8 -7 0 -29 -14 -48 -30 -19 -16 -38 -30 -43 -30
-13 0 -191 -184 -206 -213 -8 -15 -18 -27 -23 -27 -4 0 -8 -9 -8 -20 0 -11 -4
-20 -10 -20 -5 0 -10 -9 -10 -20 0 -11 -4 -20 -10 -20 -5 0 -10 -9 -10 -19 0
-11 -4 -23 -10 -26 -5 -3 -10 -16 -10 -29 0 -12 -4 -26 -9 -32 -5 -5 -12 -31
-16 -59 -10 -65 -10 -5025 0 -5090 4 -27 11 -54 16 -60 5 -5 9 -19 9 -31 0
-13 5 -26 10 -29 6 -3 10 -15 10 -26 0 -10 5 -19 10 -19 6 0 10 -9 10 -20 0
-11 5 -20 10 -20 6 0 10 -8 10 -18 0 -10 9 -24 20 -32 11 -8 20 -20 20 -27 0
-15 187 -203 202 -203 6 0 18 -8 27 -18 9 -9 28 -23 44 -31 15 -8 27 -18 27
-23 0 -4 7 -8 15 -8 9 0 25 -9 37 -20 12 -11 28 -20 35 -20 7 0 13 -4 13 -10
0 -5 6 -10 13 -10 7 0 23 -9 35 -20 12 -11 26 -20 32 -20 6 0 20 -9 32 -20 12
-11 28 -20 35 -20 7 0 13 -4 13 -10 0 -5 9 -10 19 -10 11 0 21 -3 23 -7 4 -11
87 -53 103 -53 7 0 15 -4 17 -8 2 -5 24 -12 51 -15 l47 -7 0 841 0 840 58 57
c31 32 127 131 212 222 85 90 283 293 440 450 157 157 330 334 384 393 93 100
126 125 126 94 0 -7 9 -23 20 -35 11 -12 20 -25 20 -29 0 -4 14 -24 30 -43 16
-19 30 -41 30 -47 0 -7 4 -13 8 -13 5 0 15 -12 23 -27 8 -16 21 -35 29 -43 8
-8 21 -27 29 -42 8 -16 18 -28 23 -28 4 0 8 -6 8 -12 0 -7 11 -26 25 -42 14
-16 25 -32 25 -36 0 -4 11 -20 25 -36 14 -16 25 -34 25 -39 0 -6 9 -17 20 -25
11 -8 20 -21 20 -30 0 -9 9 -22 20 -30 11 -8 20 -19 20 -25 0 -5 11 -23 25
-39 14 -16 25 -32 25 -36 0 -4 11 -20 25 -36 14 -16 25 -33 25 -38 0 -5 8 -16
18 -25 9 -9 23 -28 31 -43 8 -16 18 -28 23 -28 4 0 8 -6 8 -12 0 -7 14 -29 30
-48 16 -19 30 -41 30 -47 0 -7 4 -13 8 -13 5 0 15 -12 23 -27 8 -16 22 -35 31
-44 10 -9 18 -20 18 -25 0 -5 14 -25 30 -44 16 -19 30 -41 30 -47 0 -7 4 -13
8 -13 5 0 15 -12 23 -27 8 -16 22 -35 31 -44 10 -9 18 -20 18 -25 0 -5 11 -22
25 -38 14 -16 25 -32 25 -36 0 -4 11 -20 25 -36 14 -16 25 -34 25 -39 0 -6 9
-17 20 -25 11 -8 20 -19 20 -25 0 -5 14 -26 30 -45 16 -19 30 -41 30 -47 0 -7
3 -13 8 -13 4 0 18 -18 32 -40 14 -22 28 -40 32 -40 5 0 8 -6 8 -12 0 -7 14
-29 30 -48 16 -19 30 -40 30 -45 0 -6 9 -17 20 -25 11 -8 20 -19 20 -25 0 -5
14 -26 30 -45 16 -19 30 -40 30 -45 0 -6 9 -17 20 -25 11 -8 20 -19 20 -25 0
-5 14 -26 30 -45 16 -19 30 -40 30 -45 0 -6 9 -17 20 -25 11 -8 20 -19 20 -25
0 -6 8 -20 18 -31 10 -10 29 -35 42 -54 13 -19 32 -44 42 -54 10 -11 18 -24
18 -29 0 -5 8 -17 18 -26 10 -9 29 -32 42 -51 30 -42 246 -260 258 -260 5 0
22 -12 38 -27 16 -16 42 -34 57 -42 15 -8 27 -18 27 -23 0 -4 9 -8 20 -8 11 0
20 -4 20 -8 0 -10 123 -72 144 -72 9 0 16 -4 16 -10 0 -5 11 -10 24 -10 14 0
27 -4 30 -9 10 -15 77 -23 240 -28 103 -2 163 0 170 7 5 5 25 10 43 10 18 0
33 5 33 10 0 6 14 10 30 10 17 0 30 5 30 10 0 6 6 10 14 10 17 0 100 42 104
53 2 4 12 7 23 7 10 0 19 5 19 10 0 6 6 10 13 10 7 0 23 9 35 20 12 11 25 20
29 20 4 0 24 14 43 30 19 16 39 30 43 30 5 0 22 13 37 30 15 16 32 30 37 30
15 0 63 47 63 62 0 8 -12 21 -27 29 -16 8 -35 22 -44 31 -9 10 -20 18 -25 18
-5 0 -25 14 -44 30 -19 16 -39 30 -44 30 -5 0 -16 8 -25 18 -9 10 -32 29 -51
42 -19 13 -37 27 -40 30 -3 3 -21 17 -40 30 -19 14 -49 39 -67 56 -17 18 -49
45 -69 60 -52 39 -373 361 -404 404 -13 19 -41 52 -62 72 -21 20 -38 41 -38
46 0 5 -12 22 -28 38 -15 16 -38 45 -52 64 -13 19 -35 45 -47 58 -13 13 -23
27 -23 31 0 5 -16 26 -35 47 -19 21 -35 42 -35 46 0 5 -13 22 -30 40 -16 17
-30 35 -30 40 0 4 -13 22 -30 40 -16 17 -30 35 -30 40 0 4 -13 22 -30 40 -16
17 -30 35 -30 40 0 4 -13 22 -30 40 -16 17 -30 36 -30 42 0 6 -9 18 -20 26
-11 8 -20 20 -20 26 0 6 -13 25 -30 42 -16 18 -30 36 -30 40 0 5 -8 17 -18 28
-10 10 -29 35 -42 54 -13 19 -32 44 -42 54 -10 11 -18 24 -18 28 0 5 -11 20
-25 34 -14 14 -25 29 -25 34 0 5 -11 20 -25 34 -14 14 -25 29 -25 33 0 4 -14
24 -30 43 -16 19 -30 38 -30 43 0 4 -13 21 -30 39 -16 17 -30 36 -30 42 0 6
-9 18 -20 26 -11 8 -20 19 -20 25 0 5 -14 26 -30 45 -16 19 -30 39 -30 43 0 4
-11 19 -25 33 -14 14 -25 29 -25 34 0 5 -11 20 -25 34 -14 14 -25 29 -25 33 0
4 -14 24 -30 43 -16 19 -30 40 -30 45 0 6 -9 17 -20 25 -11 8 -20 19 -20 25 0
5 -14 26 -30 45 -16 19 -30 39 -30 43 0 4 -11 19 -25 33 -14 14 -25 29 -25 34
0 5 -11 20 -25 34 -14 14 -25 29 -25 33 0 4 -14 24 -30 43 -16 19 -30 40 -30
45 0 6 -9 17 -20 25 -11 8 -20 19 -20 25 0 5 -14 26 -30 45 -16 19 -30 40 -30
45 0 6 -9 17 -20 25 -11 8 -20 19 -20 25 0 5 -14 26 -30 45 -16 19 -30 40 -30
47 0 6 -6 13 -12 16 -17 5 155 189 547 582 176 177 394 399 485 495 91 96 302
312 470 480 345 346 530 538 530 551 0 5 -264 9 -605 9 l-605 0 -163 -163
c-89 -89 -205 -210 -257 -267 -52 -57 -174 -183 -270 -280 -96 -97 -218 -223
-270 -280 -52 -57 -169 -179 -260 -270 -91 -91 -212 -217 -270 -280 -58 -63
-179 -189 -270 -280 -91 -91 -208 -212 -260 -270 -52 -57 -185 -195 -295 -306
-110 -111 -231 -238 -270 -282 -38 -45 -78 -81 -87 -81 -17 -1 -18 94 -18
1859 l0 1860 -24 0 c-14 0 -28 -4 -31 -10z"/>
<path d="M7803 1925 c-7 -8 -13 -21 -13 -30 0 -8 -4 -15 -10 -15 -5 0 -10 -6
-10 -13 0 -7 -9 -23 -20 -35 -11 -12 -20 -28 -20 -37 0 -8 -4 -15 -8 -15 -4 0
-16 -13 -25 -30 -10 -16 -23 -35 -30 -42 -7 -7 -24 -29 -37 -48 -13 -19 -31
-42 -40 -50 -8 -8 -28 -33 -44 -54 -38 -51 -201 -214 -252 -252 -21 -16 -46
-36 -54 -44 -8 -9 -31 -27 -50 -40 -19 -13 -42 -31 -50 -40 -8 -8 -27 -21 -42
-29 -16 -8 -28 -18 -28 -23 0 -4 -6 -8 -13 -8 -7 0 -22 -8 -33 -17 -10 -10
-31 -24 -46 -32 -16 -8 -28 -18 -28 -23 0 -4 -9 -8 -20 -8 -11 0 -20 -4 -20
-8 0 -4 -22 -19 -50 -33 -27 -13 -50 -27 -50 -31 0 -5 -9 -8 -20 -8 -11 0 -20
-4 -20 -10 0 -5 -9 -10 -20 -10 -11 0 -20 -4 -20 -10 0 -5 -9 -10 -20 -10 -11
0 -20 -4 -20 -10 0 -5 -9 -10 -20 -10 -11 0 -20 -4 -20 -10 0 -5 -7 -10 -15
-10 -8 0 -24 -4 -35 -10 -11 -5 -29 -14 -40 -20 -11 -6 -27 -10 -35 -10 -8 0
-15 -4 -15 -8 0 -5 -23 -15 -51 -22 -27 -8 -52 -18 -55 -22 -3 -4 -16 -8 -30
-8 -13 0 -24 -4 -24 -10 0 -5 -13 -10 -30 -10 -16 0 -30 -4 -30 -10 0 -5 -13
-10 -29 -10 -17 0 -33 -5 -36 -10 -3 -6 -19 -10 -35 -10 -16 0 -32 -5 -35 -10
-3 -6 -21 -10 -40 -10 -19 0 -37 -5 -40 -10 -3 -6 -24 -10 -45 -10 -21 0 -42
-4 -45 -10 -3 -5 -25 -10 -49 -10 -23 0 -46 -4 -52 -9 -5 -5 -34 -12 -64 -15
-30 -4 -89 -11 -130 -16 -96 -13 -399 -32 -510 -32 -259 0 -615 40 -820 92
-25 6 -60 14 -78 17 -18 3 -35 9 -38 14 -3 5 -18 9 -34 9 -16 0 -32 4 -35 10
-3 5 -19 10 -36 10 -16 0 -29 5 -29 10 0 6 -11 10 -24 10 -14 0 -27 4 -30 8
-3 4 -28 14 -55 22 -28 7 -51 17 -51 22 0 4 -11 8 -24 8 -14 0 -28 5 -31 10
-3 6 -15 10 -26 10 -10 0 -19 5 -19 10 0 6 -7 10 -15 10 -17 0 -259 121 -263
132 -2 4 -12 8 -23 8 -10 0 -19 5 -19 10 0 6 -6 10 -13 10 -7 0 -23 9 -35 20
-12 11 -28 20 -37 20 -8 0 -15 4 -15 8 0 5 -12 15 -27 23 -16 8 -37 22 -47 31
-11 10 -25 18 -31 18 -6 0 -17 9 -25 20 -8 11 -20 20 -26 20 -6 0 -25 13 -42
30 -18 16 -36 30 -40 30 -5 0 -22 12 -38 28 -16 15 -40 35 -54 45 -45 31 -183
159 -307 285 -68 68 -123 121 -123 118 0 -7 23 -49 30 -56 3 -3 17 -21 30 -40
13 -19 27 -37 30 -40 3 -3 17 -21 30 -40 13 -19 31 -42 40 -50 9 -8 27 -30 40
-49 63 -90 391 -418 482 -482 18 -13 40 -30 48 -39 8 -9 31 -27 50 -40 19 -14
44 -32 54 -42 11 -10 26 -18 33 -18 7 0 13 -4 13 -8 0 -5 12 -15 28 -23 15 -8
36 -22 46 -32 11 -9 26 -17 33 -17 7 0 13 -4 13 -8 0 -5 12 -15 28 -23 15 -8
29 -16 32 -19 10 -10 65 -41 82 -47 10 -3 18 -9 18 -14 0 -5 9 -9 20 -9 11 0
20 -4 20 -10 0 -5 9 -10 20 -10 11 0 20 -4 20 -10 0 -5 9 -10 20 -10 11 0 20
-4 20 -10 0 -5 9 -10 20 -10 11 0 20 -4 20 -10 0 -5 9 -10 20 -10 11 0 20 -4
20 -10 0 -5 9 -10 20 -10 11 0 20 -4 20 -10 0 -5 7 -10 15 -10 8 0 24 -5 35
-10 11 -6 29 -14 40 -20 11 -5 27 -10 35 -10 8 0 15 -4 15 -10 0 -5 9 -10 20
-10 11 0 29 -5 40 -10 11 -6 29 -15 40 -20 11 -5 29 -10 40 -10 11 0 20 -4 20
-10 0 -5 14 -10 30 -10 17 0 30 -4 30 -10 0 -5 11 -10 25 -10 14 0 33 -4 43
-9 29 -14 87 -31 110 -31 11 0 23 -4 26 -9 3 -5 23 -11 43 -14 72 -11 108 -18
128 -27 11 -5 38 -11 60 -15 22 -3 67 -10 100 -16 369 -62 910 -71 1215 -19
36 6 89 13 118 16 28 3 52 10 52 15 0 5 18 9 39 9 22 0 43 4 46 10 3 5 22 10
41 10 19 0 34 5 34 10 0 6 10 10 22 10 23 0 81 16 110 31 10 5 27 9 37 9 11 0
22 4 25 8 3 4 28 14 55 22 28 7 51 16 51 20 0 4 23 13 50 20 28 7 50 17 50 22
0 4 9 8 20 8 11 0 20 5 20 10 0 6 6 10 13 10 15 0 181 82 185 92 2 5 12 8 23
8 10 0 19 5 19 10 0 6 9 10 20 10 11 0 20 4 20 9 0 5 14 14 30 21 17 7 30 16
30 21 0 5 9 9 20 9 11 0 20 4 20 8 0 5 12 15 28 23 15 8 36 22 46 32 11 9 26
17 33 17 7 0 13 4 13 8 0 4 12 15 28 24 15 9 41 28 57 42 17 14 34 26 39 26 5
0 16 8 25 18 9 10 31 29 50 41 92 65 477 450 542 543 13 18 30 40 39 48 9 8
27 31 40 50 13 19 30 41 37 48 7 7 20 26 30 42 9 17 21 30 25 30 4 0 8 6 8 13
0 6 11 25 25 41 14 16 25 33 25 37 0 4 6 14 13 21 11 13 18 24 50 81 6 12 14
24 17 27 15 15 39 68 33 74 -3 3 -166 6 -362 6 -295 -1 -358 -3 -368 -15z"/>
</g>
</svg>
