<?xml version="1.0" encoding="utf-8"?>
<!-- Generator: Adobe Illustrator 22.0.1, SVG Export Plug-In . SVG Version: 6.00 Build 0)  -->
<svg version="1.1" id="Layer_1" xmlns="http://www.w3.org/2000/svg" xmlns:xlink="http://www.w3.org/1999/xlink" x="0px" y="0px"
	 viewBox="0 0 512 512" style="enable-background:new 0 0 512 512;" xml:space="preserve">
<style type="text/css">
	.st0{fill:#F37440;}
	.st1{fill:#FFFFFF;}
</style>
<g>
	<path class="st0" d="M512,257.7C512,401.6,405.1,512,256,512C106.9,512,0,401.6,0,257.7C0,120.5,106.9,0,256,0
		C405.1,0,512,120.5,512,257.7"/>
	<path class="st1" d="M328.8,356.7c-11.3,4.3-23.3,6.9-32.2,6.9c-24.9,0-41.3-14.7-41.3-48.6V203.7h76.5v-61h-76.5V73.4h-74.6v130.3
		v117c0,77.4,44.1,112.5,110.8,112.5c23.6,0,46.1-5,75.1-20.6C351.1,397.3,336.9,378.2,328.8,356.7"/>
</g>
</svg>
